<?xml version="1.0" ?><svg enable-background="new 0 0 52 52" id="Layer_1" version="1.1" viewBox="0 0 52 52" xml:space="preserve" xmlns="http://www.w3.org/2000/svg" xmlns:xlink="http://www.w3.org/1999/xlink"><g><g><path d="M33.3202515,8.7399902L32.5002441,7.539978l-0.8200054,1.2000122    c-0.1300049,0.1799927-3.1300049,4.6699829-3.1799927,17.1799927v0.3400269v15.6499634h0.0499878    c-0.0700073,0.3200073-0.0700073,0.6700439,0.0200195,1l0.5999756,2.4200439    c-0.4099731,0.3699951-0.6699829,0.9099731-0.6699829,1.5v1.4699707c0,1.1099854,0.9000244,2,2,2h3.9999981    c1.0999756,0,2-0.8900146,2-2v-1.4699707c0-0.5900269-0.2600098-1.1300049-0.6699829-1.5l0.5999756-2.4200439    c0.0900269-0.3299561,0.0900269-0.6799927,0.0200195-1h0.0499878V26.2600098v-0.3400269    C36.4502563,13.4099731,33.4502563,8.9199829,33.3202515,8.7399902z"/></g><g><path d="M21.2802753,2.6799927L20.500246,1.7000122l-0.7799683,0.9799805    c-0.1539307,0.1923218-3.3430786,4.3642578-4.059083,15.5597534l-0.1609497,0.1802368v8.8800049v2v11.5h0.0599976    c-0.0899658,0.3699951-0.0800171,0.7700195,0.0300293,1.1500244l0.7799692,2.7000122    c-0.5200205,0.3599854-0.8699961,0.9699707-0.8699961,1.6499634v2c0,1.1099854,0.9000254,2,2.000001,2h6    c1.0999756,0,2-0.8900146,2-2v-2c0-0.6799927-0.3499756-1.289978-0.8699951-1.6499634l0.7799683-2.7000122    c0.1100464-0.3800049,0.1200562-0.7800293,0.0300293-1.1500244h0.0599976v-11.5v-2v-8.8800049l-0.1609497-0.1802368    C24.6232929,7.0442505,21.434145,2.8723145,21.2802753,2.6799927z"/></g></g></svg>